<?xml version="1.0" encoding="utf-8"?>
<!-- Generator: Adobe Illustrator 16.0.0, SVG Export Plug-In . SVG Version: 6.00 Build 0)  -->
<!DOCTYPE svg PUBLIC "-//W3C//DTD SVG 1.1//EN" "http://www.w3.org/Graphics/SVG/1.1/DTD/svg11.dtd">
<svg version="1.1" id="Capa_1" xmlns="http://www.w3.org/2000/svg" xmlns:xlink="http://www.w3.org/1999/xlink" x="0px" y="0px"
	 width="1250px" height="815px" viewBox="0 0 1250 815" enable-background="new 0 0 1250 815" xml:space="preserve">
<g>
	<g>
		<g>
			<path fill="#EBD4CC" d="M657.23,521.416L657.23,521.416l-94.098-92.985l1.111-1.109
				c64.459-71.868,110.395-154.479,137.438-241.907h108.543v-74.275H550.909V37.045h-74.092v74.092H217.5v73.72h413.798
				c-25.006,71.497-64.09,139.29-117.436,198.564c-34.452-38.342-62.979-80.019-85.575-124.103h-74.089
				c27.042,60.383,64.089,117.435,110.395,168.927L276.216,614.398l52.42,52.42L513.864,481.59l115.212,115.212L657.23,521.416z"/>
			<path fill="#EBD4CC" d="M865.795,333.409h-74.091L624.999,777.955h74.092l41.676-111.137h175.968l41.676,111.137h74.092
				L865.795,333.409z M768.551,592.729l60.199-160.594l60.2,160.594H768.551z"/>
		</g>
	</g>
</g>
</svg>
