<?xml version="1.0" encoding="utf-8"?>
<!-- Generator: Adobe Illustrator 16.0.0, SVG Export Plug-In . SVG Version: 6.00 Build 0)  -->
<!DOCTYPE svg PUBLIC "-//W3C//DTD SVG 1.1//EN" "http://www.w3.org/Graphics/SVG/1.1/DTD/svg11.dtd">
<svg version="1.1" id="Layer_1" xmlns="http://www.w3.org/2000/svg" xmlns:xlink="http://www.w3.org/1999/xlink" x="0px" y="0px"
	 width="512px" height="512px" viewBox="0 0 512 512" enable-background="new 0 0 512 512" xml:space="preserve">
<g>
	<path fill="#EBD4CC" d="M407.271,97.508c-1.851-2.212-4.865-3.064-7.601-2.148l-265.46,88.756
		c-3.667,1.224-5.647,5.189-4.423,8.856c0.434,1.298,1.238,2.441,2.315,3.287l67.928,53.376v50.116
		c-0.003,3.863,3.127,6.998,6.991,7.001c1.561,0.001,3.078-0.521,4.309-1.48l29.9-23.271l42.612,33.484
		c3.043,2.389,7.445,1.857,9.834-1.185c0.238-0.303,0.449-0.624,0.636-0.961l113.73-208
		C409.416,102.818,409.11,99.714,407.271,97.508L407.271,97.508z M362.26,122.636l-155.1,114.796l-56.192-44.156L362.26,122.636z
		 M214.032,285.436v-24.799l15.856,12.459L214.032,285.436z M286,299.376L218.572,246.4L380.5,126.548L286,299.376z"/>
	<path fill="#EBD4CC" d="M117.06,386.14c-3.683-1.175-7.621,0.855-8.8,4.536c-1.784,5.576-3.456,11.518-4.96,17.656
		c-0.921,3.756,1.376,7.547,5.132,8.468c3.755,0.922,7.547-1.376,8.468-5.132l0,0c1.432-5.828,3.012-11.456,4.696-16.728
		c1.179-3.681-0.848-7.618-4.527-8.799C117.066,386.142,117.063,386.141,117.06,386.14L117.06,386.14z"/>
	<path fill="#EBD4CC" d="M186.516,319.576c-8.848-2.601-18.317-2.109-26.848,1.392c2.164-9.439,6.224-18.343,11.932-26.168
		c2.325-3.089,1.707-7.478-1.381-9.802c-2.994-2.256-7.232-1.752-9.615,1.143c-0.8,1.017-15.756,20.291-15.972,43.735
		c-10.687,9.206-19.313,20.561-25.316,33.324c-1.743,3.451-0.358,7.663,3.094,9.406c3.452,1.741,7.663,0.356,9.406-3.096
		c4.023-8.293,9.209-15.971,15.4-22.8c0.312,0.938,0.655,1.869,1.028,2.8c5.25,14.671,19.723,23.965,35.248,22.638
		c12.638-1.471,22.489-11.646,23.548-24.324C208.672,335.428,200.232,323.804,186.516,319.576z M193.16,346
		c-0.29,6.329-5.12,11.519-11.412,12.26c-9.208,0.542-17.626-5.185-20.504-13.946c-0.957-2.39-1.652-4.874-2.072-7.412
		c6.831-4.548,15.268-5.988,23.22-3.966C189.456,335.132,193.884,340.504,193.16,346L193.16,346z"/>
</g>
</svg>
